# xmcd
#
# Track frame offsets:
# 150
# 17812
# 28762
# 44087
# 60995
# 77557
# 90810
# 107825
# 124292
# 139127
#
# Disc length: 2040 seconds
#
#
# Revision: 0
# Processed by: cddbd v1.5.2PL0 Copyright (c) Steve Scherf et al.
# Submitted via: FreeRIP 2.51 
#
DISCID=7d07f60a
DTITLE=VINKO COCE - MAMA ADIO
DYEAR=1995
DGENRE=Ballad
TTITLE0=Mama, adio
TTITLE1=Dalmatinac
TTITLE2=Ti si cvitak
TTITLE3=Noc u saldunu
TTITLE4=Neka zapiva moja Dalmacija
TTITLE5=Zlato moje
TTITLE6=Posa bi u pope
TTITLE7=Marija
TTITLE8=Serenada
TTITLE9=Kora kruha u vinu
EXTD=
EXTT0=
EXTT1=
EXTT2=
EXTT3=
EXTT4=
EXTT5=
EXTT6=
EXTT7=
EXTT8=
EXTT9=
PLAYORDER=
